<svg width="1024" height="1024" xmlns="http://www.w3.org/2000/svg" class="icon">
 <defs>
  <style type="text/css">@font-face { font-family: feedback-iconfont; src: url("//at.alicdn.com/t/font_1031158_u69w8yhxdu.woff2?t=1630033759944") format("woff2"), url("//at.alicdn.com/t/font_1031158_u69w8yhxdu.woff?t=1630033759944") format("woff"), url("//at.alicdn.com/t/font_1031158_u69w8yhxdu.ttf?t=1630033759944") format("truetype"); }</style>
 </defs>
 <g>
  <title>background</title>
  <rect fill="none" id="canvas_background" height="402" width="582" y="-1" x="-1"/>
 </g>
 <g>
  <title>Layer 1</title>
  <g transform="rotate(-180 512,511.99999999999994) " id="svg_3">
   <path id="svg_1" d="m512,960c-247.04,0 -448,-200.96 -448,-448s200.96,-448 448,-448s448,200.96 448,448s-200.96,448 -448,448zm0,-832c-211.744,0 -384,172.256 -384,384c0,211.744 172.256,384 384,384c211.744,0 384,-172.256 384,-384c0,-211.744 -172.256,-384 -384,-384z"/>
   <path id="svg_2" d="m668.832,501.152c-0.032,-0.128 -0.192,-0.256 -0.256,-0.384c-1.536,-3.616 -3.648,-7.072 -6.592,-10.048c-0.032,-0.032 -0.064,-0.032 -0.096,-0.064s-0.032,-0.064 -0.064,-0.096l-158.912,-159.36c-12.48,-12.512 -32.736,-12.576 -45.248,-0.064c-12.512,12.48 -12.544,32.736 -0.064,45.248l136.288,136.672l-137.408,135.904c-12.576,12.448 -12.672,32.672 -0.256,45.248c6.24,6.336 14.496,9.504 22.752,9.504c8.128,0 16.256,-3.104 22.496,-9.248l160.256,-158.496c9.504,-9.376 11.872,-23.2 7.104,-34.816z"/>
  </g>
 </g>
</svg>