<?xml version="1.0" standalone="no"?><!DOCTYPE svg PUBLIC "-//W3C//DTD SVG 1.1//EN" "http://www.w3.org/Graphics/SVG/1.1/DTD/svg11.dtd"><svg t="1660301296211" class="icon" viewBox="0 0 1024 1024" version="1.1" xmlns="http://www.w3.org/2000/svg" p-id="2497" xmlns:xlink="http://www.w3.org/1999/xlink" width="200" height="200"><defs><style type="text/css">@font-face { font-family: feedback-iconfont; src: url("//at.alicdn.com/t/font_1031158_u69w8yhxdu.woff2?t=1630033759944") format("woff2"), url("//at.alicdn.com/t/font_1031158_u69w8yhxdu.woff?t=1630033759944") format("woff"), url("//at.alicdn.com/t/font_1031158_u69w8yhxdu.ttf?t=1630033759944") format("truetype"); }
</style></defs><path d="M915.2 297.6256H972.8V844.8c0 31.7952-25.8048 57.6-57.6 57.6h-691.2V844.8h691.2V297.5744zM857.6 729.6c0 31.7952-25.8048 57.6-57.6 57.6h-691.2A57.6 57.6 0 0 1 51.2 729.6V211.2C51.2 179.4048 77.0048 153.6 108.8 153.6h691.2c31.7952 0 57.6 25.8048 57.6 57.6V729.6zM108.8 211.2V729.6h691.2V211.2h-691.2z m345.6 412.9792a153.8048 153.8048 0 1 1 153.8048-153.8048 154.368 154.368 0 0 1-153.8048 153.8048z m0-249.9584a96.2048 96.2048 0 1 0 0 192.3584 96.2048 96.2048 0 0 0 0-192.3584z" p-id="2498"></path></svg>